<?xml version="1.0" encoding="UTF-8"?>
<svg id="_Шар_1" data-name="Шар 1" xmlns="http://www.w3.org/2000/svg" width="1495.71" height="465.69" viewBox="0 0 1495.71 465.69">
  <defs>
    <style>
      .cls-1 {
        fill: #7c7c7c;
      }

      .cls-1, .cls-2 {
        fill-rule: evenodd;
        stroke-width: 0px;
      }

      .cls-2 {
        fill: #b21927;
      }
    </style>
  </defs>
  <path class="cls-1" d="M173.95,0H0l286.94,414.33c19.86,28.76,47.94,51.36,90.4,51.36s71.91-24.66,91.77-51.36l207.61-293.46h.04v337.29h141.76v-255.62c0-13.2-6.62-25.51-17.63-32.79l-76.04-50.58,93.67.19v-.19h493.66c19.86,0,39.72,6.85,39.72,29.45s-19.17,30.82-39.72,30.82h-405.42v278.73h402.68c144.5,0,186.28-57.53,186.28-133.54,0-54.78-32.19-90.4-71.91-102.04,31.5-11.64,62.32-41.78,62.32-95.88,0-84.24-70.54-126.7-180.11-126.7h-710.89l-215.04,304.07L173.95,0ZM1049.2,277.36h260.92c30.82,0,43.83,10.96,43.83,30.82,0,21.23-13.01,32.19-43.83,32.19h-260.92v-63.01Z"/>
  <path class="cls-2" d="M676.75,119.16l-.31,2.1.28-.4.04-1.7v338.99h141.76v-255.62c0-13.19-6.62-25.51-17.63-32.79l-76.04-50.58h-48.09Z"/>
</svg>