<?xml version="1.0" encoding="UTF-8"?>
<svg id="_Шар_1" data-name="Шар 1" xmlns="http://www.w3.org/2000/svg" width="1658.11" height="350.31" viewBox="0 0 1658.11 350.31">
  <defs>
    <style>
      .cls-1, .cls-2 {
        fill: #000;
        stroke-width: 0px;
      }

      .cls-2 {
        fill-rule: evenodd;
      }
    </style>
  </defs>
  <path class="cls-2" d="M130.85,0H0l215.85,311.67c14.94,21.64,36.06,38.64,68,38.64s54.09-18.54,69.03-38.64l156.17-220.75h.03v253.72h106.64v-192.29c0-9.93-4.98-19.19-13.26-24.66l-57.2-38.05,70.46.14v-.14h371.35c14.94,0,29.88,5.15,29.88,22.15s-14.42,23.18-29.88,23.18h-304.97v209.67h302.91c108.7,0,140.12-43.27,140.12-100.45,0-41.21-24.21-68-54.09-76.76,23.7-8.76,46.88-31.42,46.88-72.12C1117.91,31.95,1064.85,0,982.42,0H447.67l-161.76,228.73L130.85,0ZM789.24,208.64h196.28c23.18,0,32.97,8.24,32.97,23.18,0,15.97-9.79,24.21-32.97,24.21h-196.28v-47.39Z"/>
  <path class="cls-2" d="M509.08,89.64l-.24,1.58.21-.3.03-1.28v255h106.64v-192.29c0-9.93-4.98-19.19-13.26-24.66l-57.2-38.05h-36.18Z"/>
  <path class="cls-1" d="M1597.67,317.28l32.53-52.03h-32.41v-18.52h50.81c2.6,0,4.83,1.02,6.7,3.05,1.87,2.03,2.8,4.47,2.8,7.31,0,1.38-.16,2.48-.49,3.29-.24.81-.49,1.42-.73,1.83-.24.41-.53.89-.85,1.46l-33.15,52.52h32.66v18.28h-49.47l-3.17-.36c-2.52-.57-4.51-1.71-5.97-3.41-1.46-1.71-2.19-3.66-2.19-5.85,0-1.3.28-2.52.85-3.66l2.07-3.9Z"/>
  <path class="cls-1" d="M1532.46,264.27v-17.55h57.15v17.55h-18.03v70.19h-21.08v-70.19h-18.04Z"/>
  <path class="cls-1" d="M1501.1,334.46v-87.74h21.08v87.74h-21.08Z"/>
  <path class="cls-1" d="M1448.3,282.31h12.67c2.36,0,4.35-.85,5.97-2.56,1.71-1.79,2.56-3.9,2.56-6.34,0-1.22-.29-2.52-.85-3.9-.57-1.46-1.58-2.68-3.05-3.66-1.38-1.06-2.88-1.59-4.51-1.59h-12.79v18.04ZM1427.21,334.46v-87.74h38.14c3.49,0,7.27.85,11.33,2.56,4.14,1.71,7.52,4.63,10.12,8.77,2.68,4.14,4.02,8.73,4.02,13.77,0,6.9-2.52,12.92-7.55,18.03l-2.32,2.07c3.01,1.14,5.36,3.05,7.07,5.73,1.79,2.6,2.68,5.69,2.68,9.26v27.54h-20.96v-23.03c0-3.25-.85-5.89-2.56-7.92-1.71-2.11-3.7-3.17-5.97-3.17l-12.92.12v34h-21.08Z"/>
  <path class="cls-1" d="M1374.41,282.31h12.67c2.36,0,4.35-.85,5.97-2.56,1.71-1.79,2.56-3.9,2.56-6.34,0-1.22-.28-2.52-.85-3.9-.57-1.46-1.58-2.68-3.04-3.66-1.38-1.06-2.89-1.59-4.51-1.59h-12.79v18.04ZM1353.33,334.46v-87.74h38.14c3.49,0,7.27.85,11.33,2.56,4.14,1.71,7.51,4.63,10.11,8.77,2.68,4.14,4.02,8.73,4.02,13.77,0,6.9-2.52,12.92-7.55,18.03l-2.31,2.07c3,1.14,5.36,3.05,7.07,5.73,1.79,2.6,2.68,5.69,2.68,9.26v27.54h-20.96v-23.03c0-3.25-.85-5.89-2.56-7.92-1.71-2.11-3.69-3.17-5.97-3.17l-12.92.12v34h-21.08Z"/>
  <path class="cls-1" d="M1279.08,334.47v-58.12c0-9.51,2.84-17.06,8.53-22.67,5.77-5.69,13.61-8.53,23.52-8.53s17.51,2.84,23.27,8.53c5.77,5.69,8.65,13.24,8.65,22.67v58.12h-21.08v-29.85h-21.81v29.85h-21.08ZM1300.16,287.43h21.81v-12.92c0-3.57-.97-6.42-2.92-8.53-1.95-2.11-4.59-3.17-7.92-3.17s-5.89,1.06-7.92,3.17c-2.03,2.11-3.05,4.96-3.05,8.53v12.92Z"/>
  <path class="cls-1" d="M1247.72,334.46v-87.74h21.08v87.74h-21.08Z"/>
  <path class="cls-1" d="M1175.67,334.46v-87.74h39.6c5.2,0,9.79,1.46,13.77,4.39,4.06,2.84,6.7,6.17,7.92,9.99,1.3,3.82,1.95,6.99,1.95,9.5,0,3.98-.94,7.68-2.8,11.09-1.87,3.41-4.47,6.09-7.8,8.04,3.58,1.79,6.42,4.47,8.53,8.04,2.11,3.57,3.17,7.43,3.17,11.58,0,3.74-.93,7.55-2.8,11.45-1.79,3.9-4.71,7.15-8.77,9.75-4.06,2.6-8.49,3.9-13.28,3.9h-39.48ZM1197.24,281.7h13.04c3.01,0,5.24-1.62,6.7-4.87.41-1.14.69-2.39.85-3.78,0-2.44-.77-4.51-2.31-6.21-1.54-1.71-3.37-2.56-5.48-2.56h-12.79v17.42ZM1197.24,316.91h13.16c2.28,0,4.23-.85,5.85-2.56,1.71-1.79,2.56-3.94,2.56-6.46s-.85-4.67-2.56-6.46c-1.71-1.79-3.66-2.68-5.85-2.68h-13.16v18.16Z"/>
  <path class="cls-1" d="M1420.03,124.4h21.2l3.66,28.39c.33,2.27,1.22,4.1,2.68,5.48,1.54,1.3,3.54,1.95,5.97,1.95,5.28,0,8.29-2.68,9.02-8.04l3.54-27.78h21.2l-9.14,69.46c-.81,5.85-3.49,10.64-8.04,14.38-4.47,3.66-9.67,5.48-15.6,5.48-3.74,0-8.24-1.26-13.53-3.78-5.28-2.52-8.69-6.05-10.24-10.6-1.54-4.55-2.44-7.64-2.68-9.26-.16-1.62-.24-3.61-.24-5.97h20.35l.24,3.05.37,1.58c.57,1.95,1.34,3.25,2.31,3.9.97.57,1.83.85,2.56.85,1.79,0,3.05-.77,3.78-2.31.73-1.63,1.22-3.33,1.46-5.12l1.1-9.51-3.66.49c-1.95.24-3.78.36-5.48.36-7.56,0-13.69-1.74-18.4-5.24-4.63-3.57-7.31-8.24-8.04-14.01l-4.39-33.75Z"/>
  <path class="cls-1" d="M1355.17,141.95v-17.55h57.15v17.55h-18.03v70.19h-21.08v-70.19h-18.03Z"/>
  <path class="cls-1" d="M1283.48,212.14v-58.12c0-9.51,2.84-17.06,8.53-22.67,5.77-5.69,13.61-8.53,23.52-8.53s17.51,2.84,23.27,8.53,8.65,13.24,8.65,22.67v58.12h-21.08v-29.85h-21.81v29.85h-21.08ZM1304.56,165.1h21.81v-12.92c0-3.57-.98-6.42-2.92-8.53-1.95-2.11-4.59-3.17-7.92-3.17s-5.89,1.06-7.92,3.17c-2.03,2.11-3.05,4.96-3.05,8.53v12.92Z"/>
  <path class="cls-1" d="M1230.68,159.98h12.67c2.36,0,4.35-.85,5.97-2.56,1.71-1.79,2.56-3.9,2.56-6.34,0-1.22-.29-2.52-.85-3.9-.57-1.46-1.59-2.68-3.05-3.66-1.38-1.06-2.88-1.58-4.51-1.58h-12.8v18.03ZM1209.6,212.14v-87.74h38.14c3.49,0,7.27.85,11.33,2.56,4.14,1.71,7.52,4.63,10.12,8.77,2.68,4.14,4.02,8.73,4.02,13.77,0,6.91-2.52,12.92-7.56,18.04l-2.31,2.07c3.01,1.14,5.36,3.05,7.07,5.73,1.79,2.6,2.68,5.69,2.68,9.26v27.54h-20.96v-23.03c0-3.25-.85-5.89-2.56-7.92-1.71-2.11-3.7-3.17-5.97-3.17l-12.92.12v34h-21.08Z"/>
  <path class="cls-1" d="M1175.67,212.14v-87.74h21.08v87.74h-21.08Z"/>
  <path class="cls-1" d="M1537.41,14.5l-16.33,12.43-2.19-1.95c-2.27-1.79-4.67-3.09-7.19-3.9-2.44-.81-4.99-1.22-7.68-1.22-4.87,0-9.42,1.42-13.65,4.26-4.14,2.84-7.11,6.29-8.89,10.36-1.71,3.98-2.56,7.72-2.56,11.21s.94,7.39,2.8,11.45c1.87,4.06,4.96,7.47,9.26,10.24,4.39,2.76,9.02,4.14,13.89,4.14,3.17,0,6.17-.57,9.02-1.71,2.92-1.22,5.64-3.13,8.17-5.73,2.6-2.68,4.43-5.89,5.48-9.62l-27.18.24v-17.79h48.99c.73,3.09,1.09,6.13,1.09,9.14,0,8.45-2.48,16.45-7.43,24-4.95,7.47-10.36,12.55-16.21,15.23-5.77,2.68-10.15,4.35-13.16,5-3.01.73-6.13,1.09-9.38,1.09-12.75,0-23.68-4.39-32.78-13.16-9.02-8.85-13.53-19.62-13.53-32.29,0-9.34,2.56-17.83,7.68-25.47,5.12-7.64,11.29-12.96,18.52-15.96,7.31-3.01,14.09-4.51,20.35-4.51s12.47,1.26,18.16,3.78c5.69,2.44,10.6,6.01,14.75,10.72Z"/>
  <path class="cls-1" d="M1386.28,89.81V31.69c0-9.5,2.84-17.06,8.53-22.66,5.77-5.69,13.61-8.53,23.52-8.53s17.5,2.84,23.27,8.53c5.77,5.69,8.65,13.24,8.65,22.66v58.13h-21.08v-29.85h-21.81v29.85h-21.08ZM1407.36,42.78h21.81v-12.92c0-3.57-.98-6.42-2.93-8.53-1.95-2.11-4.59-3.17-7.92-3.17s-5.89,1.06-7.92,3.17c-2.03,2.11-3.05,4.96-3.05,8.53v12.92Z"/>
  <path class="cls-1" d="M1334.2,67.64V2.08h21.08v62.51c0,2.36.69,4.23,2.07,5.61,1.38,1.38,3.25,2.07,5.6,2.07h13.04v17.55h-19.62c-3.57,0-8.16-1.5-13.77-4.51-5.61-3.09-8.41-8.98-8.41-17.67Z"/>
  <path class="cls-1" d="M1284.7,67.64V2.08h21.08v62.51c0,2.36.69,4.23,2.07,5.61,1.38,1.38,3.25,2.07,5.61,2.07h13.04v17.55h-19.62c-3.58,0-8.17-1.5-13.77-4.51-5.6-3.09-8.41-8.98-8.41-17.67Z"/>
  <path class="cls-1" d="M1250.78,89.82V2.08h21.08v87.74h-21.08Z"/>
  <path class="cls-1" d="M1171.65,2.08h21.2l8.77,66.05c.33,2.03.85,3.49,1.59,4.39.81.89,1.83,1.34,3.04,1.34,1.14,0,1.99-.41,2.56-1.22.57-.89,1.02-2.52,1.34-4.87l9.14-65.68h21.2l-10.72,70.92c-.81,5.52-3.21,9.95-7.19,13.28-3.98,3.33-9.1,4.99-15.35,4.99-1.87,0-3.7-.12-5.48-.36-1.71-.24-4.02-.77-6.95-1.59-2.92-.89-5.69-2.84-8.29-5.85-2.52-3.01-4.06-6.58-4.63-10.72l-10.24-70.68Z"/>
  <path class="cls-1" d="M1558.16,67.64V27.77h21.08v36.82c0,2.36.69,4.23,2.07,5.61,1.38,1.38,3.25,2.07,5.6,2.07h13.04v17.55h-19.62c-3.57,0-8.16-1.5-13.77-4.51-5.61-3.09-8.41-8.98-8.41-17.67Z"/>
  <path class="cls-1" d="M1558.16,22.7v41.42h21.08V25.82c0-2.41.69-4.32,2.07-5.74,1.38-1.41,3.25-2.12,5.6-2.12h13.04V0h-19.62c-3.57,0-8.16,1.54-13.77,4.62-5.61,3.16-8.41,9.19-8.41,18.09Z"/>
  <path class="cls-2" d="M1579.06,54.16c.5-.03,1.01-.05,1.54-.05h19.35v-17.96h-20.9v18.01Z"/>
</svg>